<?xml version="1.0" standalone="no"?>
<!DOCTYPE svg PUBLIC "-//W3C//DTD SVG 20010904//EN"
 "http://www.w3.org/TR/2001/REC-SVG-20010904/DTD/svg10.dtd">
<svg version="1.0" xmlns="http://www.w3.org/2000/svg"
 width="30.000000pt" height="30.000000pt" viewBox="0 0 30.000000 30.000000"
 preserveAspectRatio="xMidYMid meet">

<g transform="translate(0.000000,30.000000) scale(0.100000,-0.100000)"
fill="#000000" stroke="none">
<path d="M145 279 c-3 -8 -4 -68 -3 -134 3 -99 6 -120 21 -129 12 -8 22 -8 35
0 23 15 22 56 -3 69 -17 9 -20 22 -23 94 -3 86 -15 131 -27 100z m25 -129 c0
-5 -4 -10 -10 -10 -5 0 -10 5 -10 10 0 6 5 10 10 10 6 0 10 -4 10 -10z m26
-91 c10 -17 -13 -36 -27 -22 -12 12 -4 33 11 33 5 0 12 -5 16 -11z"/>
<path d="M243 203 c-31 -10 -43 -20 -43 -34 0 -23 1 -23 44 -2 30 14 54 40 44
48 -2 1 -22 -4 -45 -12z"/>
<path d="M33 148 c-6 -7 -13 -25 -16 -39 -6 -24 -4 -27 21 -27 46 -1 82 18 82
44 0 16 -4 22 -14 18 -8 -3 -17 -1 -21 5 -9 15 -40 14 -52 -1z m43 -19 c10
-17 -13 -36 -27 -22 -12 12 -4 33 11 33 5 0 12 -5 16 -11z"/>
</g>
</svg>
